HIERARCHY
ROOT Hips
{
  OFFSET 40.9192 92.6879 18.85
  CHANNELS 6 Xposition Yposition Zposition Zrotation Xrotation Yrotation
  JOINT LeftUpLeg
  {
    OFFSET 8.64259 1.95398 -2.38835
    CHANNELS 3 Zrotation Xrotation Yrotation
    JOINT LeftLeg
    {
      OFFSET 43.7702 0 0
      CHANNELS 3 Zrotation Xrotation Yrotation
      JOINT LeftFoot
      {
        OFFSET 40.6238 0 0
        CHANNELS 3 Zrotation Xrotation Yrotation
        JOINT LeftToeBase
        {
          OFFSET 12.7242 0 0
          CHANNELS 3 Zrotation Xrotation Yrotation
          End Site
          {
            OFFSET 0 0 0
          }
        }
      }
    }
  }
  JOINT RightUpLeg
  {
    OFFSET -8.2249 1.95398 -2.59336
    CHANNELS 3 Zrotation Xrotation Yrotation
    JOINT RightLeg
    {
      OFFSET 43.5653 0 0
      CHANNELS 3 Zrotation Xrotation Yrotation
      JOINT RightFoot
      {
        OFFSET 40.6238 0 0
        CHANNELS 3 Zrotation Xrotation Yrotation
        JOINT RightToeBase
        {
          OFFSET 12.7242 0 0
          CHANNELS 3 Zrotation Xrotation Yrotation
          End Site
          {
            OFFSET 0 0 0
          }
        }
      }
    }
  }
  JOINT Spine
  {
    OFFSET 0.165834 0.87714 6.61349
    CHANNELS 3 Zrotation Xrotation Yrotation
    JOINT Spine1
    {
      OFFSET 7.38963 1.71661e-005 0
      CHANNELS 3 Zrotation Xrotation Yrotation
      JOINT Spine2
      {
        OFFSET 11.9445 1.14441e-005 0
        CHANNELS 3 Zrotation Xrotation Yrotation
        JOINT Spine3
        {
          OFFSET 14.7254 4.19617e-005 0
          CHANNELS 3 Zrotation Xrotation Yrotation
          JOINT Spine4
          {
            OFFSET 10.9679 0 0
            CHANNELS 3 Zrotation Xrotation Yrotation
            JOINT RightShoulder
            {
              OFFSET 2.46616 -1.6653 3.69651
              CHANNELS 3 Zrotation Xrotation Yrotation
              JOINT RightArm
              {
                OFFSET 13.0012 0 0
                CHANNELS 3 Zrotation Xrotation Yrotation
                JOINT RightForeArm
                {
                  OFFSET 28.7848 1.52588e-005 0
                  CHANNELS 3 Zrotation Xrotation Yrotation
                  JOINT RightHand
                  {
                    OFFSET 26.5688 1.52588e-005 0
                    CHANNELS 3 Zrotation Xrotation Yrotation
                    End Site
                    {
                      OFFSET 0 0 0
                    }
                  }
                }
              }
            }
            JOINT LeftShoulder
            {
              OFFSET 2.38034 -1.29275 -3.7523
              CHANNELS 3 Zrotation Xrotation Yrotation
              JOINT LeftArm
              {
                OFFSET 16.3182 6.10351e-005 0
                CHANNELS 3 Zrotation Xrotation Yrotation
                JOINT LeftForeArm
                {
                  OFFSET 27.0901 0 0
                  CHANNELS 3 Zrotation Xrotation Yrotation
                  JOINT LeftHand
                  {
                    OFFSET 24.5451 1.52588e-005 0
                    CHANNELS 3 Zrotation Xrotation Yrotation
                    End Site
                    {
                      OFFSET 0 0 0
                    }
                  }
                }
              }
            }
            JOINT Neck
            {
              OFFSET 5.0226 -0.0266342 0
              CHANNELS 3 Zrotation Xrotation Yrotation
              JOINT Head
              {
                OFFSET 6.69363 2.86102e-005 0
                CHANNELS 3 Zrotation Xrotation Yrotation
                End Site
                {
                  OFFSET 0 0 0
                }
              }
            }
          }
        }
      }
    }
  }
}
MOTION
Frames:	15
Frame Time:	0.0416667
261.811 89.7717 -255.515 -70.7297 -48.526 -72.6527 -165.793 37.5265 89.1284 -61.4759 29.8032 -9.45578 48.8607 -10.9914 13.4176 61.5495 27.7393 6.37956 176.433 68.0311 91.4131 -88.2812 72.6487 23.9111 25.0494 3.14167 8.19317 22.5523 15.0807 -100.357 0.848915 6.07381 -88.6188 14.6965 2.36352 2.4337 3.02566 2.46831 2.32735 -19.4997 1.52319 3.03113 0.512997 1.52322 3.03115 -167.196 -55.4343 29.7847 -39.572 -38.6178 2.08237 -76.3101 -16.1264 -97.5845 -85.2163 8.10809 -5.07869 -66.198 -53.4312 114.019 -24.1824 37.715 26.3364 24.265 -4.57487 -82.3347 33.8956 -18.5532 -57.1676 43.5771 -2.53081 -31.0902 -44.5632 3.65115 27.953 
257.827 90.9315 -250.298 -70.1953 -52.5369 -72.2274 -168.678 29.2842 88.8717 -58.8965 20.905 -5.22822 50.1137 -7.47289 2.74936 63.8873 28.4725 3.18615 176.005 61.7284 87.8957 -94.4028 71.8198 22.9421 23.2684 5.79926 12.3128 9.33855 25.1311 -91.6125 -0.0010302 6.40053 -88.7727 14.0638 0.598667 2.37967 2.39092 0.702818 2.35102 -20.1274 -0.144007 2.44956 -0.114707 -0.143981 2.44956 -172.317 -63.8414 19.5294 -39.7311 -37.6058 1.46743 -98.2913 -16.5892 -128.07 -82.9573 -19.0467 29.5165 -73.0526 -56.3271 103.86 -21.9692 34.2019 19.4169 12.7238 -3.40515 -84.3739 36.3017 1.04419 -3.95196 37.5778 -1.48719 -21.0894 -33.5889 3.43653 18.4509 
252.865 91.8063 -242.494 -73.3779 -53.1467 -72.8101 -169.9 16.0984 90.7868 -51.336 15.2232 -2.95423 53.3058 -4.65949 -6.7528 64.2696 28.4134 2.15787 172.85 52.8704 95.1296 -74.0755 36.113 2.6258 32.4892 2.02253 2.73739 1.14479 4.51425 -6.09765 -0.358857 6.75908 -89.1734 13.3535 -0.312632 1.69344 1.68144 -0.237794 1.70555 -20.8465 -0.807065 1.52127 -0.833836 -0.807056 1.52126 151.003 -71.4829 -24.1361 -17.8747 -44.0824 17.6621 -69.8498 -35.9215 -115.697 -93.5317 -17.0597 20.2099 -80.6189 -53.8083 93.0617 -23.155 30.352 14.3448 11.0109 -6.37707 -91.2106 36.4162 2.08401 1.7849 27.9977 -0.794665 -10.2685 -21.8795 2.02999 6.03578 
247.269 93.0838 -233.971 -74.9961 -54.7514 -73.3742 -170.613 1.14003 93.9876 -36.7268 20.9398 -1.25596 50.5771 -5.36825 -8.43157 51.936 22.7132 18.4934 170.555 46.9983 96.9805 -59.4398 2.53305 2.47825 57.1844 0.0176147 0.207141 41.2155 0.0516474 -4.2274 -0.751748 7.08121 -89.3972 12.718 -1.20504 1.34594 1.04685 -1.14464 1.39765 -21.4897 -1.55382 0.921555 -1.47702 -1.55381 0.921544 117.861 -67.1573 -62.0082 11.3754 -39.8549 43.6465 -13.6601 -24.4995 -74.7659 -68.1956 1.59916 -5.61342 -85.0814 -49.0711 85.991 -25.2874 27.0305 10.8923 13.7279 -9.3663 -100.646 32.679 1.6696 1.20478 19.604 -0.131065 -11.8366 -13.2945 2.694 7.47726 
240.718 94.0468 -225.429 -78.3547 -52.0288 -78.2855 -171.218 -9.04603 91.7827 -24.3144 23.1093 -1.05603 40.0703 -11.1583 -11.4436 35.4627 4.94817 36.0497 173.44 43.5596 96.2235 -42.0349 -5.42214 2.434 57.3033 0.398744 0.479232 38.579 0.341569 -6.95548 -0.678178 7.40313 -89.2626 12.0726 -0.999762 1.58099 0.40105 -0.929247 1.62344 -22.1322 -1.42869 1.20748 -2.11957 -1.42869 1.20748 105.324 -60.0861 -77.6038 24.0209 -34.5968 49.3649 -9.70193 -18.3454 -73.5009 -32.5938 -0.184652 -3.57399 -87.0776 -44.177 82.0839 -27.9943 24.7162 9.29326 13.3818 -11.6605 -107.111 31.0474 0.742134 -1.59681 14.6134 1.4236 -14.8402 -5.89668 4.8539 11.4639 
234.055 94.2569 -217.327 -76.3208 -51.8249 -76.0065 -171.849 -6.52759 93.0565 -31.7307 28.5866 -0.052536 35.3756 -14.845 -9.42148 30.416 -1.28751 26.5355 173.318 41.5019 98.1884 -31.4493 -6.11787 4.12875 54.5308 1.26415 1.12955 41.8551 0.352146 -5.99172 -0.863334 7.43716 -89.5661 12.0055 -1.51179 1.03032 0.335005 -1.46497 1.09585 -22.206 -1.75153 0.528231 -2.1934 -1.75153 0.52824 98.2984 -52.6814 -87.8059 32.1143 -28.6654 48.3814 -11.9049 -16.7116 -73.4661 -19.3394 -0.0532637 -4.42203 -89.2868 -41.616 77.9374 -29.8405 20.5428 9.05618 14.7988 -12.1115 -108.087 28.5421 0.565684 -1.98615 12.8765 3.27041 -12.4275 -1.58748 6.27424 10.1464 
228.202 93.4765 -209.536 -78.668 -51.2484 -80.4985 -173.122 -1.69062 91.5288 -45.155 22.5326 -0.0366587 38.4494 -12.5591 -7.28789 29.2993 -1.61137 18.4952 172.308 39.686 97.5929 -36.9931 -4.27512 4.6912 56.9466 0.487049 0.508839 38.8613 0.392843 -6.50148 -0.969923 7.59518 -89.4435 11.6926 -1.66801 1.28495 0.0220175 -1.60986 1.35712 -22.5198 -1.97706 0.724137 -2.50713 -1.97706 0.724131 94.8982 -48.2021 -93.5321 36.2257 -23.3789 44.2975 -11.1562 -15.5071 -72.0059 -22.5157 0.00448132 -4.62395 -90.9542 -41.0506 75.0486 -31.1292 17.2643 10.1752 15.3773 -9.61396 -103.639 29.7482 0.740965 -1.44708 10.0021 5.06984 -8.36049 3.48321 7.19259 7.74366 
222.621 92.4745 -201.797 -84.7324 -49.4845 -85.3445 -171.145 2.16718 92.6643 -59.1726 17.1173 -0.536137 41.696 -10.4411 -4.85612 33.373 3.01191 15.1587 172.786 32.4657 98.6112 -43.9744 -2.866 4.16169 69.0303 -3.87085 -2.01593 27.1334 0.115512 -3.06225 -0.649229 7.9196 -89.6003 11.0386 -1.10699 0.900628 -0.63228 -1.06629 0.948468 -23.17 -1.32648 0.526271 -3.15732 -1.32646 0.526274 94.7583 -47.8063 -93.8202 35.1651 -21.0334 37.8161 -11.4913 -14.074 -72.0832 -22.9359 -0.732007 -1.105 -92.7145 -43.4017 72.858 -31.1459 16.3695 11.5422 13.5689 -7.08154 -93.9678 31.7492 1.88469 2.04002 8.46784 5.39207 -4.31152 5.49873 6.61613 5.85439 
216.906 91.214 -194.31 -88.4832 -50.2264 -87.1285 -171.338 11.519 94.6703 -71.5203 12.2199 0.532586 47.0767 -6.26669 -2.86877 37.9959 7.77213 16.1041 173.663 25.3985 99.6249 -49.3061 0.0872518 3.51471 79.2638 -7.78879 -3.43795 28.9643 0.0656353 -0.897599 -0.58229 8.15483 -89.8801 10.5661 -1.10455 0.337439 -1.10437 -1.08864 0.385729 -23.6433 -1.15492 -0.0101785 -3.63064 -1.1549 -0.0101693 93.8022 -47.7159 -95.3543 34.0518 -18.9791 29.2704 -11.8373 -13.9572 -71.638 -25.0326 -0.207151 -3.5576 -92.7695 -45.7938 73.4648 -31.7899 15.9277 12.3003 8.97167 -1.80997 -83.1483 36.5496 1.40479 -0.139882 8.0685 5.4421 -1.01276 6.23292 5.83556 3.24502 
211.855 90.5938 -186.958 -86.7202 -51.0859 -83.9537 -173.707 24.7417 95.9854 -78.1525 8.88108 1.62045 51.3444 -2.90833 0.410545 40.5561 10.3418 15.1624 174.592 20.1324 101.361 -49.6116 3.20719 3.10465 84.116 -10.3411 -4.09584 33.181 0.263046 -1.50967 -0.426128 8.13767 -90.2624 10.5951 -0.969276 -0.433479 -1.07573 -0.987396 -0.390413 -23.6109 -0.794202 -0.704749 -3.59826 -0.794195 -0.704752 92.7795 -47.3352 -97.049 32.5703 -17.0678 18.1074 -11.2876 -14.1416 -71.2699 -25.3105 -0.50301 -2.29383 -93.7374 -49.2508 72.9655 -31.0521 14.6317 14.3066 8.70164 1.32778 -72.658 37.0891 1.51632 0.127837 10.7035 5.08573 1.6089 4.69998 4.77563 1.50409 
206.085 90.9153 -179.834 -86.6421 -44.6922 -85.2603 -170.739 33.1892 95.6266 -74.86 5.86244 0.356879 55.8808 -0.268981 1.24469 42.4024 12.3606 16.5306 177.833 13.4878 99.9124 -47.3837 -0.415818 0.0107656 84.4479 -11.1767 -4.38544 38.2533 0.44103 -1.48291 0.534646 8.06754 -89.9968 10.7427 1.06611 -0.0947268 -0.927736 1.06089 -0.141571 -23.4671 1.04529 0.230087 -3.45441 1.04529 0.230089 93.4162 -45.9544 -96.2893 34.5558 -16.9913 9.68044 -13.0807 -11.7017 -75.0285 -25.4299 -0.522264 -2.23358 -94.0437 -49.0126 72.4404 -32.7789 15.0742 20.601 5.72811 1.09184 -68.3357 34.402 1.39587 0.0515734 11.3231 3.7412 -0.177544 3.82605 3.90301 2.73318 
199.716 92.1208 -172.284 -85.9639 -43.1257 -86.9702 -170.306 38.0977 94.2031 -63.8344 5.93287 -0.780531 58.9917 1.08433 2.94545 42.9716 13.234 18.678 178.636 6.16375 96.7259 -43.4962 -4.54758 -2.32562 79.4998 -9.34512 -4.12792 42.9706 0.586839 -1.9349 0.883703 7.90077 -89.6564 11.0685 1.91846 0.499411 -0.601076 1.93858 0.414457 -23.1446 1.67967 1.05303 -3.13198 1.67965 1.05303 94.6029 -43.8137 -94.7115 37.0802 -19.0683 4.46836 -17.036 -8.98499 -82.4131 -25.5595 -0.515578 -2.1953 -91.7229 -47.743 75.5979 -36.3939 15.9249 28.7431 4.65099 -0.171934 -70.9857 31.8603 1.35063 0.377559 9.45195 2.62865 -0.99128 5.18854 2.99519 2.58433 
193.074 93.9631 -163.592 -85.125 -42.9694 -87.892 -170.385 38.2196 93.6798 -44.5325 7.67249 -2.42889 57.5707 -1.1767 -0.557344 41.13 11.4422 20.5617 178.183 -0.0904512 93.411 -40.0513 -10.8683 -4.5114 66.578 -4.03918 -2.2505 48.6448 1.03529 0.371048 1.11188 7.73045 -89.3744 11.4029 2.50435 0.993369 -0.265958 2.54564 0.882125 -22.8125 2.09003 1.7003 -2.79989 2.09001 1.70029 95.271 -41.9727 -93.8892 37.9274 -22.0689 1.83387 -20.2948 -5.18466 -90.613 -24.9121 -0.384988 -2.7179 -89.6967 -44.9333 78.0623 -40.929 15.3381 35.7426 10.9616 1.62159 -74.279 37.4662 3.08752 4.38494 8.14703 1.21735 -1.9234 5.72645 1.72037 1.87593 
186.216 95.5487 -154.262 -84.7121 -42.2212 -88.7296 -170.938 33.9168 93.5846 -19.0975 11.7894 -3.56272 45.5387 -9.65223 -5.26482 38.8823 8.92768 20.1994 176.084 -5.31923 89.2021 -36.6903 -16.4937 -5.83118 52.8485 1.34683 1.16806 43.6936 0.90325 0.856887 1.41386 7.56622 -89.1441 11.723 3.2138 1.36851 0.0554347 3.27092 1.22561 -22.4973 2.65395 2.27147 -2.48468 2.65396 2.27147 95.5734 -41.7473 -93.4059 37.2807 -24.5903 2.5481 -24.9122 -0.361705 -97.809 -25.0393 -0.542548 -1.91903 -89.7986 -42.5723 77.3337 -43.3186 12.0547 41.9211 4.9855 -0.927192 -76.9158 36.419 1.70387 0.701418 7.30658 -0.167948 -3.15724 4.88756 0.555226 1.92544 
179.672 96.5621 -144.9 -84.5023 -41.1674 -88.4041 -171.312 31.3411 94.2662 -4.38705 12.0834 -4.3904 39.7801 -13.4034 -8.37255 36.0116 5.70931 16.9711 174.739 -6.63338 86.3607 -41.6793 -10.3831 -5.95613 49.8577 2.08968 1.8982 33.3567 0.248194 -4.31924 1.66643 7.4197 -89.1704 12.0172 3.70464 1.25229 0.351049 3.75614 1.08782 -22.2121 3.15694 2.30855 -2.19942 3.15694 2.30855 95.7311 -40.8342 -93.275 36.9163 -26.7228 4.7917 -24.7229 2.47166 -100.627 -24.2826 -0.683896 -1.32198 -88.9126 -41.9957 78.6432 -42.898 9.2034 44.9802 9.65623 -0.897604 -80.809 34.2765 1.59214 0.685376 6.00285 -0.809387 -3.01267 4.62491 -0.127764 2.08018 
